<?xml version="1.0" encoding="utf-8"?>
<!-- Generator: Adobe Illustrator 16.0.0, SVG Export Plug-In . SVG Version: 6.00 Build 0)  -->
<!DOCTYPE svg PUBLIC "-//W3C//DTD SVG 1.1//EN" "http://www.w3.org/Graphics/SVG/1.1/DTD/svg11.dtd">
<svg version="1.1" id="Layer_1" xmlns="http://www.w3.org/2000/svg" xmlns:xlink="http://www.w3.org/1999/xlink" x="0px" y="0px"
	 width="283.46px" height="283.46px" viewBox="0 0 283.46 283.46" enable-background="new 0 0 283.46 283.46" xml:space="preserve">
<g>
	<path fill="#CDE8D4" d="M276.378,141.722c0,74.359-60.295,134.656-134.656,134.656c-53.979,0-100.534-31.771-121.982-77.649
		c-8.123-17.312-12.653-36.626-12.653-57.007c0-1.373,0.023-2.767,0.065-4.138C9.33,65.139,68.732,7.086,141.722,7.086
		C216.083,7.086,276.378,67.359,276.378,141.722z"/>
	<g>
		<defs>
			<path id="SVGID_1_" d="M276.378,141.722c0,74.359-60.295,134.656-134.656,134.656c-53.979,0-100.534-31.771-121.982-77.649
				c-8.123-17.312-12.653-36.626-12.653-57.007c0-1.373,0.023-2.767,0.065-4.138C9.33,65.139,68.732,7.086,141.722,7.086
				C216.083,7.086,276.378,67.359,276.378,141.722z"/>
		</defs>
		<clipPath id="SVGID_2_">
			<use xlink:href="#SVGID_1_"  overflow="visible"/>
		</clipPath>
		<g clip-path="url(#SVGID_2_)">
			<path fill="#FFFFFF" stroke="#00AC4E" stroke-miterlimit="10" d="M194.495,93.494c0.072-1.121,0.107-2.239,0.03-3.36
				c-0.245-3.531-1.606-6.879-3.02-10.125c-8.169-18.775-21.752-35.546-42.28-40.984c-16.879-4.469-34.981-0.437-48.859,9.97
				C77.297,66.285,70.438,97.442,81.658,123.5c3.013,6.993,6.82,13.643,11.329,19.781c1.606,2.19,3.32,4.345,4.381,6.843
				c0.84,1.983,1.244,4.115,1.642,6.23c2.715,14.479,1.931,29.093,1.931,43.808h56.109V174.66c1.091-0.063,2.19-0.143,3.29-0.262
				c7.953-0.411,21.542-1.264,24.715-2.402c4.551-1.635,4.551-18.439,5.224-19.724c0.668-1.281,3.063-2.799,3.764-3.967
				s-1.049-3.383-1.049-3.383s1.166-0.701,1.749-1.868c0.584-1.167-0.583-4.551-0.233-6.068c0.351-1.518,8.616-1.35,9.199-4.014
				c0.832-3.806-3.665-11.294-4.898-14.771c-2.199-6.204-4.758-13.601-4.6-20.232C194.243,96.478,194.401,94.986,194.495,93.494z"/>
			<path fill="none" stroke="#00AC4E" stroke-miterlimit="10" d="M138.054,114.303c0,0-8.217-13.297-15.982-4.119
				c-7.764,9.176-2.774,30.799,11.642,26.919"/>
			<path fill="#D08A47" d="M123.893,79.442c0-0.056,0-0.168,0-0.222"/>
			<path fill="#00AC4E" d="M175.573,97.356v2.052c0,0,14.317-0.077,14.415-0.219c0.201,0,0.532-1.829,0-2.463
				C187.215,93.422,175.573,97.356,175.573,97.356z"/>
			<circle fill="#00AC4E" cx="182.414" cy="110.184" r="4.119"/>
			<g>
				<path fill="#E9C09B" d="M194.742,143.055c-6.883,0-15.704,1.912-16.001,1.991c-0.502,0.141-0.796,0.658-0.661,1.16
					c0.141,0.5,0.649,0.792,1.163,0.659c0.068-0.019,7.129-1.942,13.75-1.942"/>
			</g>
			<path fill="#00AC4E" d="M82.858,319.783h125.644c-0.838-26.608-7.339-17.187-14.282-65.473
				c-6.389-44.476-37.588-63.521-61.506-66.211c-0.057-0.056-0.168-0.056-0.225-0.056l-31.549-2.588
				c-20.276,4.932-25.252,29.645-24.468,50.481L82.858,319.783z"/>
			<path fill="#00AC4E" d="M159.145,116.495l47.828,10.754c0,0-0.262,44.129-25.395,49.304c-0.049-0.028-11.49-3.933-19.959-12.009
				c-7.947-7.576-13.678-19.128-13.678-19.128C162.109,135.001,159.145,116.495,159.145,116.495z"/>
			<line fill="none" stroke="#00AC4E" stroke-miterlimit="10" x1="167.162" y1="120.191" x2="135.114" y2="110.653"/>
			<line fill="none" stroke="#00AC4E" stroke-miterlimit="10" x1="128.919" y1="137.455" x2="156.259" y2="148.467"/>
			<path fill="#00AC4E" d="M141.29,125.737c2.771-0.075,3.88-14.766,5.358-19.672c1.479-4.908,8.686-9.344,11.644-15.812
				c2.956-6.467,2.587-34.19,2.587-34.19s14.727,2.741,26.49,15.509l5.068,10.645c0,0-0.301-19.13-2.159-28.925
				c-1.863-9.795-28.477-20.512-56.565-21.806C105.622,30.19,89.915,42.019,88.25,45.715s-1.109,10.72-1.109,10.72
				s-9.61,3.512-13.859,9.055c-4.25,5.545-5.915,29.873,0,50.235c5.912,20.36,26.034,42.357,26.034,42.357s4.828-0.93,10.003-7.028
				c5.174-6.099,8.288-18.968,9.134-28.796c0.845-9.828,3.619-15.927,10.467-14.955c4.238,0.6,9.044,4.688,9.135,7
				C138.145,116.612,137.869,125.828,141.29,125.737z"/>
		</g>
	</g>
</g>
</svg>
