<?xml version="1.0" encoding="utf-8"?>
<!-- Generator: Adobe Illustrator 16.0.0, SVG Export Plug-In . SVG Version: 6.00 Build 0)  -->
<!DOCTYPE svg PUBLIC "-//W3C//DTD SVG 1.1//EN" "http://www.w3.org/Graphics/SVG/1.1/DTD/svg11.dtd">
<svg version="1.1" id="Layer_1" xmlns="http://www.w3.org/2000/svg" xmlns:xlink="http://www.w3.org/1999/xlink" x="0px" y="0px"
	 width="283.46px" height="283.46px" viewBox="0 0 283.46 283.46" enable-background="new 0 0 283.46 283.46" xml:space="preserve">
<g>
	<path fill="#CDE8D4" d="M277.176,141.521c0,74.361-60.294,134.655-134.657,134.655c-53.981,0-100.535-31.771-121.984-77.65
		c-8.123-17.312-12.65-36.626-12.65-57.004c0-1.373,0.021-2.767,0.065-4.138C10.125,64.936,69.528,6.884,142.519,6.884
		C216.882,6.884,277.176,67.158,277.176,141.521z"/>
	<g>
		<g>
			<g>
				<g>
					<path fill="#FFFFFF" stroke="#00AC4E" stroke-miterlimit="10" d="M225.288,165.616c-1.867-0.061-6.225,0.962-11.492,2.35
						c-11.675,3.059-27.781,7.858-31.12,6.742c-4.73-1.597-35.981-14.438-37.457-15.064c0.808,0.145,10.437,1.85,18.67,3.017
						c0.028,0.009,0.028,0.009,0.061,0.015c3.186,0.467,6.165,0.836,8.331,1.013c8.103,0.63,11.17-4.927,10.284-7.458
						c-0.874-2.535-35.469-18.148-52.757-20.133c-12.527-1.44-24.131,2.8-31.83,8.885H65.081v40.271h56.683
						c12.762,1.163,59.656,8.116,64.046,7.009c4.889-1.204,46.049-18.894,47.129-20.08
						C234.007,171.024,231.284,165.761,225.288,165.616z"/>
				</g>
			</g>
			<path fill="#FFFFFF" stroke="#00AC4E" stroke-miterlimit="10" d="M88.36,195.825H76.923v-55.741H88.36
				c2.227,0,4.035,1.805,4.035,4.036v47.671C92.395,194.019,90.587,195.825,88.36,195.825z"/>
			<path fill="#00AC4E" d="M76.932,139.797v56.313c0,1.35-1.088,2.415-2.418,2.415H20.535c-8.123-17.312-12.65-36.626-12.65-57.004
				c0-1.373,0.021-2.767,0.065-4.138h66.564C75.844,137.383,76.932,138.448,76.932,139.797z"/>
		</g>
		<g>
			<path fill="#00AC4E" d="M275.354,117.574l-117.409-12.123c-2.256-0.236-3.97-2.139-3.97-4.408V87.599
				c0-2.632,2.279-4.685,4.895-4.411L269.003,95.98"/>
			<path fill="#00AC4E" d="M183.535,105.74v7.701c0,0.864-0.701,1.56-1.56,1.56h-22.771c-0.864,0-1.56-0.696-1.56-1.56v-10.433"/>
		</g>
		<path fill="#FFFFFF" stroke="#00AC4E" stroke-miterlimit="10" d="M176.376,135.744c0,3.194-2.592,5.786-5.786,5.786
			s-5.786-2.592-5.786-5.786c0-3.196,5.563-13.419,5.786-13.419S176.376,132.548,176.376,135.744z"/>
	</g>
</g>
</svg>
